# xmcd
#
# Track frame offsets: 
#        150
#        15562
#        35535
#        53596
#        67476
#        84989
#        103688
#        116974
#        131176
#        147092
#        173312
#
# Disc length: 2810 seconds
#
# Revision: 2
# Processed by: cddbd v1.5.1PL0 Copyright (c) Steve Scherf et al.
# Submitted via: ExactAudioCopy v0.95a4
#
DISCID=950af80b
DTITLE=Shooter Jennings - Put The O Back In Country
DYEAR=2005
DGENRE=Country
TTITLE0=Put The O Back In Country
TTITLE1=4Th Of July (Featuring George Jones Singing "He Stopped Loving
TTITLE1=Her Today")
TTITLE2=Lonesome Blues
TTITLE3=Solid Country Gold
TTITLE4=Busted Baylor County
TTITLE5=Sweet Savannah
TTITLE6=Steady At The Wheel
TTITLE7=Manifesto No. 1
TTITLE8=The Letter
TTITLE9=Southern Comfort
TTITLE10=Daddy's Farm
EXTD=
EXTT0=
EXTT1=
EXTT2=
EXTT3=
EXTT4=
EXTT5=
EXTT6=
EXTT7=
EXTT8=
EXTT9=
EXTT10=
PLAYORDER=
